<?xml version="1.0" encoding="iso-8859-1"?>
<!-- Generator: Adobe Illustrator 16.0.0, SVG Export Plug-In . SVG Version: 6.00 Build 0)  -->
<!DOCTYPE svg PUBLIC "-//W3C//DTD SVG 1.1//EN" "http://www.w3.org/Graphics/SVG/1.1/DTD/svg11.dtd">
<svg version="1.1" id="Capa_1" xmlns="http://www.w3.org/2000/svg" xmlns:xlink="http://www.w3.org/1999/xlink" x="0px" y="0px"
	 width="31.479px" height="31.479px" viewBox="0 0 31.479 31.479" style="enable-background:new 0 0 31.479 31.479;"
	 xml:space="preserve">
<g>
	<g>
		<path d="M8.476,17.737l2.385,1.408l-3.104-6.16l-6.949,0.207l2.244,1.331L0,20.172c0,0,2.451,4.442,4.122,7.094
			c0.683,1.084,1.597,1.698,2.474,1.698h8.924V22.53l-9.693-0.003L8.476,17.737z"/>
		<path d="M16.691,10.466l6.763,0.405l3.243-6.147l-2.264,1.297L21.02,0.582c0,0-5.073-0.058-8.202,0.093
			c-1.28,0.062-2.266,0.554-2.697,1.315L5.724,9.757l5.599,3.17l4.778-8.435l2.863,4.665L16.691,10.466z"/>
		<path d="M31.23,18.314l-4.245-7.85l-5.659,3.062l4.607,8.527l-5.473-0.053l0.082-2.479l-3.92,5.373l3.487,6.014l0.103-2.606
			l6.422-0.003c0,0,2.742-4.27,4.277-7C31.542,20.182,31.647,19.087,31.23,18.314z"/>
	</g>
</g>
<g>
</g>
<g>
</g>
<g>
</g>
<g>
</g>
<g>
</g>
<g>
</g>
<g>
</g>
<g>
</g>
<g>
</g>
<g>
</g>
<g>
</g>
<g>
</g>
<g>
</g>
<g>
</g>
<g>
</g>
</svg>
