<?xml version="1.0" encoding="UTF-8" standalone="no"?>
<!DOCTYPE svg PUBLIC "-//W3C//DTD SVG 1.1//EN" "http://www.w3.org/Graphics/SVG/1.1/DTD/svg11.dtd">
<svg width="100%" height="100%" viewBox="0 0 842 596" version="1.1" xmlns="http://www.w3.org/2000/svg" xmlns:xlink="http://www.w3.org/1999/xlink" xml:space="preserve" xmlns:serif="http://www.serif.com/" style="fill-rule:evenodd;clip-rule:evenodd;stroke-linejoin:round;stroke-miterlimit:1.41421;">
    <g id="Layer-1" serif:id="Layer 1">
        <g transform="matrix(1,0,0,1,287.588,224.567)">
            <path d="M0,157.408C-17.157,157.418 -31.095,143.462 -31.097,126.307L-31.105,31.09C-31.111,13.953 -17.176,0 -0.042,-0.003C8.29,-0.01 16.088,3.222 21.969,9.093C27.85,14.967 31.083,22.779 31.089,31.081L31.081,126.306C31.102,134.597 27.878,142.41 22.002,148.275C16.138,154.166 8.317,157.405 0,157.408" style="fill:white;fill-rule:nonzero;"/>
        </g>
        <g transform="matrix(1,0,0,1,287.563,373.62)">
            <path d="M0,-140.699C-12.556,-140.705 -22.732,-130.509 -22.735,-117.964L-22.718,-22.75C-22.715,-10.162 -12.521,-0.003 0.02,0.009C12.586,-0.006 22.764,-10.169 22.751,-22.749L22.753,-117.976C22.748,-130.518 12.558,-140.708 0,-140.699" style="fill:white;fill-rule:nonzero;"/>
        </g>
        <g transform="matrix(1,0,0,1,531.465,105.43)">
            <path d="M0,132.206L-8.359,132.203L-213.172,132.23L-221.534,132.233L-221.537,123.872C-221.556,89.551 -202.857,57.63 -172.233,38.77L-184.139,17.037C-185.597,14.489 -185.961,11.265 -185.114,8.314C-184.253,5.365 -182.22,2.832 -179.493,1.381C-177.917,0.487 -175.992,-0.01 -174.044,-0.007C-169.828,-0.006 -165.961,2.282 -163.927,5.982L-151.465,28.683C-138.568,23.951 -124.954,21.539 -110.889,21.544C-96.621,21.538 -82.938,23.953 -69.987,28.703L-57.545,5.963C-55.542,2.272 -51.65,-0.027 -47.439,-0.023C-45.543,-0.025 -43.653,0.438 -41.984,1.336C-39.185,2.872 -37.233,5.32 -36.374,8.29C-35.519,11.242 -35.862,14.36 -37.362,17.064L-49.262,38.787C-18.684,57.685 -0.008,89.583 -0.011,123.844L0,132.206Z" style="fill:white;fill-rule:nonzero;"/>
        </g>
        <g transform="matrix(1,0,0,1,467.357,150.431)">
            <path d="M0,41.754C-4.734,41.759 -8.597,37.926 -8.588,33.169C-8.588,28.462 -4.74,24.581 0.004,24.565C4.713,24.578 8.576,28.46 8.572,33.174C8.575,37.914 4.733,41.755 0,41.754M-93.257,41.771C-97.974,41.76 -101.816,37.926 -101.817,33.19C-101.815,28.472 -97.975,24.594 -93.25,24.594C-88.501,24.59 -84.66,28.472 -84.654,33.188C-84.652,37.921 -88.501,41.768 -93.257,41.771M3.561,-3.011L19.43,-31.992C20.276,-33.506 19.723,-35.446 18.192,-36.285C16.64,-37.121 14.725,-36.55 13.907,-35.028L-2.128,-5.757C-15.614,-11.742 -30.713,-15.113 -46.675,-15.097C-62.604,-15.11 -77.676,-11.757 -91.123,-5.788L-107.169,-34.995C-107.997,-36.535 -109.931,-37.098 -111.44,-36.25C-112.983,-35.427 -113.547,-33.491 -112.692,-31.98L-96.814,-3.024C-128.01,13.068 -149.085,43.703 -149.069,78.875L55.741,78.854C55.747,43.687 34.709,13.116 3.561,-3.011" style="fill:white;fill-rule:nonzero;"/>
        </g>
        <g transform="matrix(1,0,0,1,382.682,228.826)">
            <path d="M0,261.674C-17.14,261.672 -31.089,247.73 -31.093,230.579L-31.101,188.556L-39.268,188.563C-47.996,188.565 -56.186,185.174 -62.342,179.014C-68.506,172.86 -71.902,164.664 -71.89,155.93L-71.92,8.4L-71.922,0.033L-63.561,0.035L139.714,0.003L148.078,-0.003L148.079,8.358L148.1,155.907C148.103,173.9 133.465,188.542 115.475,188.538L107.252,188.548L107.264,230.556C107.262,247.696 93.318,261.653 76.185,261.652C67.88,261.671 60.083,258.442 54.198,252.555C48.307,246.684 45.065,238.877 45.069,230.576L45.068,188.547L31.095,188.546L31.095,230.568C31.092,247.714 17.147,261.677 0,261.674" style="fill:white;fill-rule:nonzero;"/>
        </g>
        <g transform="matrix(1,0,0,1,319.161,334.574)">
            <path d="M0,50.182C-0.012,63.618 10.833,74.464 24.257,74.459L40.777,74.46L40.796,124.839C40.793,137.38 50.983,147.577 63.516,147.578C76.08,147.578 86.258,137.372 86.247,124.822L86.249,74.454L116.945,74.449L116.943,124.826C116.954,137.369 127.157,147.575 139.687,147.554C152.249,147.562 162.434,137.356 162.432,124.805L162.418,74.442L178.998,74.437C192.376,74.442 203.259,63.57 203.258,50.163L203.232,-97.396L-0.037,-97.36L0,50.182Z" style="fill:white;fill-rule:nonzero;"/>
        </g>
        <g transform="matrix(1,0,0,1,553.932,224.531)">
            <path d="M0,157.406C-17.148,157.408 -31.098,143.473 -31.093,126.319L-31.116,31.102C-31.112,13.95 -17.185,0 -0.044,-0.001C17.118,-0.003 31.074,13.944 31.071,31.092L31.08,126.303C31.084,143.444 17.147,157.409 0,157.406" style="fill:white;fill-rule:nonzero;"/>
        </g>
        <g transform="matrix(1,0,0,1,553.905,373.579)">
            <path d="M0,-140.689C-12.555,-140.699 -22.731,-130.503 -22.729,-117.946L-22.72,-22.733C-22.714,-10.161 -12.543,0.01 0.023,0.002C12.578,0 22.742,-10.163 22.753,-22.741L22.728,-117.952C22.726,-130.512 12.557,-140.692 0,-140.689" style="fill:white;fill-rule:nonzero;"/>
        </g>
        <g transform="matrix(1,0,0,1,576.642,339.851)">
            <path d="M0,-84.229C-0.002,-96.786 -10.18,-106.963 -22.736,-106.96C-35.291,-106.97 -45.468,-96.775 -45.465,-84.217L-45.449,10.998C-45.45,23.568 -35.277,33.727 -22.713,33.731C-10.158,33.729 0.014,23.568 0.017,10.988L0,-84.229ZM-257.517,-102.637L-257.482,44.918C-257.493,58.34 -246.637,69.173 -233.222,69.176L-216.703,69.183L-216.684,119.562C-216.687,132.103 -206.491,142.301 -193.964,142.301C-181.4,142.301 -171.222,132.095 -171.219,119.546L-171.231,69.177L-140.535,69.171L-140.522,119.548C-140.525,132.084 -130.323,142.297 -117.794,142.277C-105.231,142.285 -95.047,132.079 -95.049,119.528L-95.063,69.165L-78.486,69.152C-65.104,69.157 -54.218,58.308 -54.215,44.886L-54.24,-102.671L-257.517,-102.637ZM-109.284,-147.666C-114.019,-147.661 -117.873,-151.5 -117.872,-156.251C-117.856,-160.956 -114.024,-164.839 -109.28,-164.855C-104.571,-164.842 -100.708,-160.96 -100.712,-156.246C-100.701,-151.505 -104.551,-147.665 -109.284,-147.666M-202.542,-147.649C-207.258,-147.66 -211.1,-151.494 -211.101,-156.23C-211.099,-160.948 -207.266,-164.827 -202.534,-164.826C-197.785,-164.83 -193.944,-160.948 -193.938,-156.232C-193.936,-151.5 -197.786,-147.652 -202.542,-147.649M-105.724,-192.431L-89.854,-221.412C-89.008,-222.926 -89.563,-224.855 -91.099,-225.71C-92.646,-226.53 -94.559,-225.973 -95.377,-224.448L-111.406,-195.165C-124.897,-201.166 -139.988,-204.535 -155.959,-204.517C-171.888,-204.53 -186.975,-201.176 -200.407,-195.208L-216.453,-224.415C-217.289,-225.956 -219.208,-226.513 -220.723,-225.674C-222.268,-224.843 -222.832,-222.911 -221.976,-221.4L-206.099,-192.441C-237.294,-176.352 -258.37,-145.717 -258.354,-110.545L-53.543,-110.566C-53.537,-145.733 -74.575,-176.304 -105.724,-192.431M-289.078,-106.93C-301.634,-106.936 -311.81,-96.739 -311.813,-84.194L-311.796,11.019C-311.793,23.607 -301.613,33.764 -289.056,33.762C-276.492,33.763 -266.314,23.6 -266.327,11.02L-266.325,-84.207C-266.33,-96.749 -276.521,-106.938 -289.078,-106.93" style="fill:rgb(164,196,57);fill-rule:nonzero;"/>
        </g>
    </g>
</svg>
