<?xml version="1.0" encoding="iso-8859-1"?>
<!-- Generator: Adobe Illustrator 19.0.0, SVG Export Plug-In . SVG Version: 6.00 Build 0)  -->
<svg version="1.1" id="Layer_1" xmlns="http://www.w3.org/2000/svg" xmlns:xlink="http://www.w3.org/1999/xlink" x="0px" y="0px"
	 viewBox="0 0 503.747 503.747" style="enable-background:new 0 0 503.747 503.747;" xml:space="preserve">
<g>
	<g>
		<g>
			<path d="M281.637,362.845c-6.782,2.04-17.047,5.128-29.763,5.128c-22.914,0-44.091-6.253-62.909-18.583
				c-18.919-12.406-33.28-28.546-42.958-48.481L38.814,113.031l-7.252,12.968C10.671,163.375,0.07,205.703,0.07,251.808
				c0,62.657,20.69,118.104,61.499,164.788c40.775,46.634,92.227,74.928,152.92,84.069l5.657,0.856l83.96-145.274L281.637,362.845z"
				/>
			<path d="M138.303,220.311c6.329-24.744,20.514-45.803,42.169-62.59c20.354-15.763,43.713-23.426,71.403-23.426h223.836
				l-7.42-12.641c-21.135-36.05-50.898-64.89-90.977-88.19C339.1,11.256,296.889,0,251.875,0c-39.172,0-76.246,8.444-110.189,25.105
				c-36.184,17.744-66.921,42.781-88.87,72.435l-3.357,4.541l83.918,137.51L138.303,220.311z"/>
			<path d="M484.565,156.93l-2.275-4.801H315.286l14.328,14.328c24.786,24.794,38.434,55.095,38.434,85.345
				c0,24.173-6.874,46.584-20.749,67.114L240.081,503.747l14.739-0.143c68.541-0.655,127.782-25.81,176.094-74.76
				c48.279-48.951,72.763-108.519,72.763-177.043C503.677,226.906,500.361,190.235,484.565,156.93z"/>
			<path d="M151.155,251.804c0,54.599,46.122,100.721,100.721,100.721c54.599,0,100.721-46.122,100.721-100.721
				s-46.122-100.721-100.721-100.721C197.277,151.083,151.155,197.205,151.155,251.804z"/>
		</g>
	</g>
</g>
<g>
</g>
<g>
</g>
<g>
</g>
<g>
</g>
<g>
</g>
<g>
</g>
<g>
</g>
<g>
</g>
<g>
</g>
<g>
</g>
<g>
</g>
<g>
</g>
<g>
</g>
<g>
</g>
<g>
</g>
</svg>
