<?xml version="1.0" encoding="UTF-8" standalone="no"?>
<!DOCTYPE svg PUBLIC "-//W3C//DTD SVG 1.1//EN" "http://www.w3.org/Graphics/SVG/1.1/DTD/svg11.dtd">
<svg width="100%" height="100%" viewBox="0 0 800 800" version="1.1" xmlns="http://www.w3.org/2000/svg" xmlns:xlink="http://www.w3.org/1999/xlink" xml:space="preserve" xmlns:serif="http://www.serif.com/" style="fill-rule:evenodd;clip-rule:evenodd;stroke-linejoin:round;stroke-miterlimit:1.41421;">
    <g id="path2993" transform="matrix(1.33333,0,0,1.33333,-133.333,-133.333)">
        <path d="M400,100C234.315,100 100,234.315 100,400C100,565.685 234.315,700 400,700C565.685,700 700,565.685 700,400C700,234.315 565.685,100 400,100ZM400,125C525.967,125 632.154,209.699 664.719,325.25C636.671,383.102 596.76,435.19 548.156,477.281C524.808,497.501 499.315,515.527 471.156,528.219C442.997,540.911 412.024,548.112 381.188,546.344C358.019,545.015 335.133,538.561 314.844,527.313C368.614,498.176 417.13,459.329 456.844,412.813C482.911,382.28 505.718,347.581 514.5,308.406C518.891,288.819 519.635,268.306 515.531,248.656C511.428,229.007 502.343,210.282 488.594,195.656C475.162,181.368 457.529,171.247 438.625,166.031C419.721,160.816 399.603,160.412 380.313,163.938C341.731,170.988 307.284,193.412 279.656,221.25C230.958,270.319 200.853,339.557 206.375,408.469C209.136,442.925 220.683,476.782 240.469,505.125C244.885,511.452 249.741,517.478 254.938,523.188C226.114,533.275 196.269,540.456 166,544.5C140.012,502.507 125,453.013 125,400C125,248.122 248.122,125 400,125ZM401.75,180.563C421.081,180.589 440.544,186.441 455.969,198.094C469.866,208.592 480.163,223.528 486,239.938C491.837,256.347 493.335,274.166 491.344,291.469C487.361,326.074 469.903,357.809 448.813,385.531C411.468,434.617 361.831,473.905 306.625,501.406C300.974,504.221 295.234,506.897 289.469,509.469C277.456,498.957 267.161,486.489 259.313,472.594C242.914,443.559 237.506,409.069 240.688,375.875C243.869,342.681 255.26,310.69 270.563,281.063C288.305,246.711 312.489,214.173 346.344,195.5C363.271,186.164 382.419,180.536 401.75,180.563ZM672.531,363.188C674.142,375.23 675,387.517 675,400C675,551.878 551.878,675 400,675C314.704,675 238.472,636.17 188.031,575.219C219.165,568.148 249.594,557.991 278.781,545.063C291.545,554.783 305.641,562.755 320.625,568.5C363.776,585.043 412.767,582.649 456.438,567.531C500.108,552.413 538.834,525.278 572.594,493.719C612.81,456.124 646.718,411.812 672.531,363.188Z" style="fill-rule:nonzero;"/>
    </g>
</svg>
