<?xml version="1.0" encoding="iso-8859-1"?>
<!-- Generator: Adobe Illustrator 16.0.0, SVG Export Plug-In . SVG Version: 6.00 Build 0)  -->
<!DOCTYPE svg PUBLIC "-//W3C//DTD SVG 1.1//EN" "http://www.w3.org/Graphics/SVG/1.1/DTD/svg11.dtd">
<svg version="1.1" id="Capa_1" xmlns="http://www.w3.org/2000/svg" xmlns:xlink="http://www.w3.org/1999/xlink" x="0px" y="0px"
	 width="612px" height="612px" viewBox="0 0 612 612" style="enable-background:new 0 0 612 612;" xml:space="preserve">
<g>
	<g>
		<g>
			<path d="M306.022,612v-13.984L306,612C137.27,612,0,474.725,0,305.995C0,137.27,137.27,0,306,0c168.73,0,306,137.27,306,305.995
				C612,474.725,474.735,612,306.022,612z M306,27.97c-153.308,0-278.03,124.723-278.03,278.025
				C27.97,459.302,152.692,584.03,306,584.03h0.022c153.29,0,278.008-124.729,278.008-278.036
				C584.03,152.692,459.308,27.97,306,27.97z"/>
			<g>
				<path d="M306,370.409c-7.725,0-13.985-6.26-13.985-13.985v-59.195c0-7.725,6.26-13.985,13.985-13.985
					c30.951,0,56.13-25.178,56.13-56.129c0-30.957-25.179-56.146-56.13-56.146s-56.135,25.189-56.135,56.146
					c0,7.725-6.26,13.985-13.985,13.985s-13.985-6.26-13.985-13.985c0-46.379,37.731-84.116,84.105-84.116s84.1,37.737,84.1,84.116
					c0,41.608-30.375,76.257-70.114,82.936v46.374C319.984,364.149,313.726,370.409,306,370.409z"/>
				<circle cx="305.995" cy="433.743" r="23.03"/>
			</g>
		</g>
	</g>
</g>
<g>
</g>
<g>
</g>
<g>
</g>
<g>
</g>
<g>
</g>
<g>
</g>
<g>
</g>
<g>
</g>
<g>
</g>
<g>
</g>
<g>
</g>
<g>
</g>
<g>
</g>
<g>
</g>
<g>
</g>
</svg>
